<?xml version="1.0" encoding="utf-8"?>
<!-- Generator: Adobe Illustrator 22.1.0, SVG Export Plug-In . SVG Version: 6.00 Build 0)  -->
<svg version="1.1" id="Layer_1" xmlns="http://www.w3.org/2000/svg" xmlns:xlink="http://www.w3.org/1999/xlink" x="0px" y="0px"
	 viewBox="0 0 48 48" style="enable-background:new 0 0 48 48;" xml:space="preserve">
<g>
	<path d="M16.4,31.9h8v-2.7h-8V31.9z M16.4,15.9v2.7h24v-2.7H16.4z M16.4,25.3h16v-2.7h-16V25.3z"/>
	<path d="M9.9,15.9c-0.1,0-0.2,0.1-0.3,0.2c-0.1,0.1-0.1,0.2-0.1,0.4v9.7l-1.4-1.4c-0.1-0.1-0.2-0.2-0.4-0.1c-0.1,0-0.3,0.1-0.4,0.1
		L6,26.2c-0.1,0.1-0.1,0.2-0.1,0.4s0.1,0.3,0.1,0.4l4.8,4.8c0.1,0.1,0.2,0.1,0.4,0.1s0.3-0.1,0.4-0.1l4.8-4.8
		c0.1-0.1,0.1-0.2,0.1-0.4s-0.1-0.3-0.1-0.4l-1.4-1.4c-0.1-0.1-0.2-0.1-0.4-0.1c-0.1,0-0.3,0.1-0.4,0.1l-1.4,1.4v-9.7
		c0-0.1,0-0.3-0.1-0.4c-0.1-0.1-0.2-0.2-0.3-0.2H9.9z"/>
	<path d="M38.6,31.9c0.1,0,0.2,0,0.2-0.1c0.1-0.1,0.1-0.2,0.1-0.3v-7.4l1.1,1.1c0.1,0.1,0.2,0.1,0.3,0.1c0.1,0,0.2,0,0.3-0.1
		l1.1-1.1c0.1-0.1,0.1-0.2,0.1-0.3c0-0.1,0-0.2-0.1-0.3L37.9,20c-0.1-0.1-0.2-0.1-0.3-0.1s-0.2,0-0.3,0.1l-3.6,3.6
		c-0.1,0.1-0.1,0.2-0.1,0.3c0,0.1,0,0.2,0.1,0.3l1.1,1.1c0.1,0.1,0.2,0.1,0.3,0.1c0.1,0,0.2,0,0.3-0.1l1.1-1.1v7.4
		c0,0.1,0,0.2,0.1,0.3c0.1,0.1,0.1,0.1,0.2,0.1H38.6z"/>
</g>
</svg>
